# xmcd
#
# Track frame offsets: 
#        150
#        43820
#        81505
#        95886
#
# Disc length: 1683 seconds
#
# Revision: 0
# Processed by: cddbd v1.5.1PL0 Copyright (c) Steve Scherf et al.
# Submitted via: ExactAudioCopy v0.95a5
#
DISCID=34069104
DTITLE=Van Morrison - Badeparken, Sandefjord
DYEAR=2005
DGENRE=Celtic
TTITLE0=Celtic New Year > The Healing Game
TTITLE1=And The Healing Has Begun
TTITLE2=Brown Eyed Girl
TTITLE3=Gloria
EXTD=
EXTT0=
EXTT1=
EXTT2=
EXTT3=
PLAYORDER=
